<svg xmlns="http://www.w3.org/2000/svg" id="canvas" viewBox="616.107 259.817 256.419 177.980"><path d="M 712.72,267.04 C 711.96 267.64, 711.56 268.02, 710.89 270.31 C 710.23 272.61, 710.16 274.16, 709.39 278.52 C 708.61 282.88, 708.45 285.90, 707.04 292.10 C 705.63 298.30, 704.71 302.24, 702.33 309.52 C 699.95 316.80, 698.31 320.81, 695.14 328.51 C 691.98 336.21, 690.11 340.44, 686.52 348.01 C 682.93 355.59, 680.85 359.45, 677.19 366.37 C 673.52 373.28, 671.46 376.91, 668.20 382.59 C 664.93 388.27, 663.43 390.75, 660.89 394.78 C 658.35 398.80, 657.22 400.26, 655.50 402.73 C 653.78 405.20, 653.10 405.90, 652.31 407.14 C 651.51 408.38, 651.75 408.61, 651.54 408.92 C 651.34 409.23, 651.44 408.57, 651.26 408.68 C 651.08 408.80, 650.48 409.11, 650.63 409.48 C 650.78 409.86, 651.16 410.56, 652.01 410.57 C 652.87 410.58, 653.54 410.64, 654.90 409.52 C 656.27 408.40, 657.14 407.62, 658.85 404.97 C 660.56 402.32, 661.15 400.51, 663.44 396.27 C 665.73 392.03, 667.17 389.55, 670.30 383.77 C 673.43 377.98, 675.47 374.34, 679.09 367.36 C 682.70 360.39, 684.77 356.50, 688.38 348.90 C 691.99 341.29, 693.88 337.05, 697.14 329.34 C 700.40 321.62, 702.09 317.61, 704.68 310.32 C 707.28 303.03, 708.33 299.07, 710.11 292.89 C 711.89 286.71, 712.48 283.75, 713.57 279.41 C 714.66 275.07, 715.33 273.62, 715.56 271.20 C 715.79 268.78, 715.29 268.15, 714.72 267.32 C 714.16 266.49, 713.49 266.44, 712.72 267.04" style="stroke: black; fill: black;"/><path d="M 657.53,297.60 C 658.16 297.01, 657.81 296.23, 658.33 294.94 C 658.84 293.65, 658.80 293.08, 660.11 291.15 C 661.41 289.23, 661.84 287.88, 664.84 285.33 C 667.84 282.78, 670.32 281.07, 675.11 278.41 C 679.90 275.75, 682.99 274.24, 688.77 272.03 C 694.55 269.82, 697.75 268.66, 704.02 267.37 C 710.28 266.08, 713.98 265.69, 720.07 265.59 C 726.17 265.49, 729.43 265.74, 734.48 266.86 C 739.52 267.99, 741.89 269.12, 745.30 271.22 C 748.71 273.32, 750.06 274.69, 751.52 277.37 C 752.98 280.04, 753.23 281.31, 752.58 284.59 C 751.92 287.86, 751.03 289.89, 748.25 293.75 C 745.46 297.61, 743.30 299.86, 738.66 303.91 C 734.02 307.95, 730.80 310.22, 725.05 314.00 C 719.30 317.78, 715.56 319.86, 709.91 322.81 C 704.26 325.76, 701.00 326.85, 696.79 328.76 C 692.59 330.66, 690.59 331.03, 688.89 332.34 C 687.18 333.64, 687.14 334.55, 688.27 335.29 C 689.39 336.03, 690.95 336.18, 694.51 336.03 C 698.08 335.87, 700.77 334.91, 706.12 334.52 C 711.46 334.13, 715.10 333.62, 721.25 334.10 C 727.41 334.59, 731.16 335.28, 736.91 336.94 C 742.65 338.61, 745.56 339.81, 750.00 342.44 C 754.43 345.07, 756.59 346.58, 759.10 350.09 C 761.61 353.61, 762.49 355.65, 762.56 360.02 C 762.62 364.40, 761.95 366.84, 759.44 371.97 C 756.92 377.10, 755.02 380.08, 749.98 385.67 C 744.94 391.26, 741.44 394.54, 734.23 399.94 C 727.01 405.33, 722.48 408.11, 713.92 412.65 C 705.36 417.19, 700.43 419.31, 691.43 422.64 C 682.43 425.97, 677.32 427.37, 668.92 429.31 C 660.52 431.24, 656.41 431.93, 649.43 432.34 C 642.45 432.74, 638.99 432.42, 634.00 431.34 C 629.01 430.25, 626.71 429.17, 624.49 426.90 C 622.27 424.64, 622.56 422.96, 622.91 420.00 C 623.27 417.03, 624.75 415.09, 626.26 412.09 C 627.77 409.10, 630.09 406.77, 630.48 405.03 C 630.87 403.28, 629.81 402.37, 628.20 403.37 C 626.59 404.38, 624.26 406.78, 622.44 410.06 C 620.62 413.34, 619.14 415.97, 619.11 419.78 C 619.07 423.59, 619.40 426.31, 622.27 429.13 C 625.14 431.94, 628.02 432.79, 633.48 433.86 C 638.94 434.93, 642.40 435.01, 649.57 434.47 C 656.75 433.93, 660.85 433.17, 669.35 431.14 C 677.84 429.11, 682.97 427.70, 692.06 424.32 C 701.14 420.95, 706.10 418.82, 714.78 414.27 C 723.46 409.72, 728.05 406.98, 735.43 401.57 C 742.82 396.17, 746.42 392.93, 751.71 387.25 C 756.99 381.57, 759.09 378.63, 761.86 373.18 C 764.62 367.72, 765.59 364.95, 765.53 359.98 C 765.47 355.02, 764.37 352.36, 761.56 348.35 C 758.75 344.35, 756.25 342.77, 751.48 339.93 C 746.71 337.10, 743.71 335.97, 737.73 334.17 C 731.74 332.37, 727.92 331.66, 721.56 330.93 C 715.20 330.20, 711.45 330.43, 705.94 330.52 C 700.43 330.60, 697.54 330.73, 694.00 331.36 C 690.46 331.99, 689.03 332.91, 688.26 333.66 C 687.49 334.41, 688.15 335.48, 690.14 335.12 C 692.13 334.76, 694.00 333.84, 698.22 331.87 C 702.45 329.91, 705.58 328.41, 711.24 325.29 C 716.91 322.18, 720.68 320.11, 726.55 316.29 C 732.42 312.46, 735.71 310.27, 740.59 306.16 C 745.47 302.06, 747.84 299.92, 750.96 295.74 C 754.08 291.57, 755.43 289.30, 756.18 285.28 C 756.93 281.26, 756.55 279.01, 754.71 275.63 C 752.88 272.25, 750.94 270.72, 747.01 268.39 C 743.09 266.06, 740.49 265.09, 735.10 263.98 C 729.70 262.88, 726.34 262.72, 720.02 262.86 C 713.70 263.01, 709.93 263.44, 703.48 264.72 C 697.03 266.00, 693.75 267.14, 687.75 269.25 C 681.75 271.36, 678.62 272.79, 673.49 275.28 C 668.35 277.78, 665.75 279.21, 662.09 281.71 C 658.44 284.22, 656.92 285.32, 655.21 287.81 C 653.50 290.31, 653.54 292.17, 653.54 294.19 C 653.53 296.21, 654.37 297.23, 655.17 297.92 C 655.97 298.60, 656.90 298.20, 657.53 297.60" style="stroke: black; fill: black;"/><path d="M 868.03,288.14 C 867.87 287.00, 867.36 285.52, 865.56 284.23 C 863.75 282.94, 862.22 281.96, 859.00 281.69 C 855.78 281.42, 853.95 281.60, 849.46 282.88 C 844.97 284.16, 842.22 285.28, 836.53 288.11 C 830.85 290.95, 827.47 292.86, 821.04 297.07 C 814.62 301.28, 810.96 303.85, 804.42 309.15 C 797.88 314.44, 794.16 317.47, 788.33 323.53 C 782.51 329.60, 779.61 333.03, 775.28 339.48 C 770.95 345.93, 769.03 349.49, 766.67 355.80 C 764.31 362.11, 763.66 365.39, 763.48 371.02 C 763.31 376.64, 763.72 379.50, 765.80 383.93 C 767.88 388.37, 769.67 390.47, 773.87 393.18 C 778.08 395.89, 781.06 396.80, 786.82 397.49 C 792.58 398.18, 795.98 397.80, 802.67 396.63 C 809.35 395.46, 813.26 394.07, 820.25 391.63 C 827.24 389.19, 831.11 387.59, 837.61 384.43 C 844.12 381.27, 847.49 379.45, 852.78 375.84 C 858.07 372.22, 860.74 370.07, 864.05 366.35 C 867.36 362.63, 868.69 360.63, 869.31 357.23 C 869.94 353.84, 869.18 351.79, 867.19 349.39 C 865.21 347.00, 863.04 346.18, 859.39 345.27 C 855.74 344.36, 853.21 344.48, 848.93 344.83 C 844.64 345.18, 841.94 345.88, 837.96 347.02 C 833.98 348.16, 831.54 348.72, 829.04 350.53 C 826.54 352.34, 825.60 353.87, 825.46 356.06 C 825.33 358.25, 826.03 360.13, 828.36 361.49 C 830.69 362.84, 835.20 363.38, 837.13 362.82 C 839.05 362.25, 839.32 359.90, 837.97 358.67 C 836.61 357.44, 832.36 357.12, 830.35 356.67 C 828.34 356.23, 827.68 356.77, 827.94 356.45 C 828.20 356.13, 829.37 356.03, 831.66 355.07 C 833.94 354.11, 835.82 352.77, 839.35 351.66 C 842.89 350.55, 845.53 349.87, 849.34 349.50 C 853.16 349.13, 855.43 349.29, 858.43 349.79 C 861.43 350.30, 862.89 350.67, 864.34 352.01 C 865.80 353.36, 866.21 354.06, 865.69 356.52 C 865.17 358.99, 864.61 360.91, 861.73 364.34 C 858.84 367.78, 856.32 370.11, 851.28 373.69 C 846.25 377.27, 842.92 379.12, 836.55 382.24 C 830.18 385.36, 826.31 386.94, 819.44 389.29 C 812.58 391.64, 808.67 392.94, 802.22 394.01 C 795.77 395.08, 792.52 395.29, 787.18 394.62 C 781.83 393.95, 779.25 393.03, 775.50 390.64 C 771.75 388.25, 770.30 386.60, 768.42 382.69 C 766.54 378.78, 766.02 376.30, 766.10 371.08 C 766.19 365.86, 766.67 362.68, 768.86 356.60 C 771.05 350.52, 772.86 346.99, 777.05 340.66 C 781.25 334.34, 784.09 330.94, 789.83 324.97 C 795.58 319.01, 799.27 316.01, 805.78 310.85 C 812.29 305.68, 815.97 303.16, 822.38 299.17 C 828.80 295.18, 832.24 293.35, 837.84 290.89 C 843.44 288.43, 846.27 287.57, 850.38 286.86 C 854.49 286.15, 855.82 286.97, 858.39 287.32 C 860.95 287.68, 861.61 288.12, 863.21 288.64 C 864.80 289.17, 865.40 290.04, 866.37 289.94 C 867.33 289.84, 868.19 289.28, 868.03 288.14" style="stroke: black; fill: black;"/></svg>